<?xml version="1.0" standalone="no"?>
<!DOCTYPE svg PUBLIC "-//W3C//DTD SVG 20010904//EN"
 "http://www.w3.org/TR/2001/REC-SVG-20010904/DTD/svg10.dtd">
<svg version="1.0" xmlns="http://www.w3.org/2000/svg"
 width="94.000000pt" height="94.000000pt" viewBox="0 0 94.000000 94.000000"
 preserveAspectRatio="xMidYMid meet">
<metadata>
Created by potrace 1.14, written by Peter Selinger 2001-2017
</metadata>
<g transform="translate(0.000000,94.000000) scale(0.100000,-0.100000)"
fill="#000000" stroke="none">
<path d="M585 842 c-61 -6 -76 -13 -101 -53 l-26 -41 -18 30 c-10 16 -29 37
-41 46 -29 20 -117 21 -143 1 -27 -21 -26 -88 2 -118 l22 -23 -74 -1 c-103 0
-106 -2 -106 -68 0 -30 4 -55 9 -55 5 0 9 -94 9 -216 -1 -141 3 -219 10 -226
7 -7 105 -11 294 -11 293 -1 366 4 380 25 4 7 8 106 8 220 0 114 4 209 9 212
11 7 7 94 -5 106 -5 5 -48 10 -96 12 l-88 3 25 23 c14 12 26 31 26 40 5 72
-25 101 -96 94z m-215 -99 c24 -52 21 -62 -11 -39 -31 21 -47 53 -41 82 6 32
23 18 52 -43z m230 25 c0 -23 -56 -86 -66 -75 -5 5 4 33 20 63 28 54 45 58 46
12z"/>
</g>
</svg>
